<?xml version="1.0"?>
<svg xmlns:rdf="http://www.w3.org/1999/02/22-rdf-syntax-ns#" xmlns="http://www.w3.org/2000/svg" xmlns:cc="http://creativecommons.org/ns#" xmlns:xlink="http://www.w3.org/1999/xlink" xmlns:dc="http://purl.org/dc/elements/1.1/" xmlns:svg="http://www.w3.org/2000/svg" id="svg2160" viewBox="0 0 64 64" version="1.0">
  <defs id="defs2162">
    <radialGradient id="radialGradient2197" gradientUnits="userSpaceOnUse" cy="15.163" cx="15.891" r="27.545">
      <stop id="stop3145" stop-color="#fff" offset="0"/>
      <stop id="stop3147" stop-color="#00f038" stop-opacity="0" offset="1"/>
    </radialGradient>
    <radialGradient id="radialGradient2199" gradientUnits="userSpaceOnUse" cy="16.847" cx="16.028" gradientTransform="matrix(.91888 .94532 -.71707 .69701 13.381 -10.047)" r="27.545">
      <stop id="stop3179" stop-color="#9bffb3" offset="0"/>
      <stop id="stop3181" stop-color="#00f038" offset="1"/>
    </radialGradient>
  </defs>
  <g id="layer1">
    <g id="g2179" transform="translate(.5 -.5)">
      <path id="path3141" d="m55.091 27.727a27.545 27.545 0 1 1 -55.091 0 27.545 27.545 0 1 1 55.091 0z" fill="url(#radialGradient2197)" transform="matrix(.99849 0 0 .99849 3.9962 4.8147)"/>
      <path id="path2168" stroke-linejoin="round" d="m55.091 27.727a27.545 27.545 0 1 1 -55.091 0 27.545 27.545 0 1 1 55.091 0z" transform="matrix(.99849 0 0 .99849 3.9962 4.8147)" stroke="#00be31" stroke-linecap="round" stroke-width="2.5038" fill="url(#radialGradient2199)"/>
      <path id="path3167" d="m47.25 15.71c-9.325 2.509-17.627 10.014-19.25 19.781-3.925-2.606-7.217-7.955-11.969-8.218-3.137 1.633-10.434 5.866-4.281 8.343 5.505 4.278 13.752 8.131 15.062 15.563 2.69 2.513 6.167-1.059 8.969-2 3.474-5.623-0.428-13.37 2.938-19.344 1.738-5.634 7.82-7.914 11.281-12-0.003-1.483-1.361-2.51-2.75-2.125z" fill="#fff"/>
    </g>
  </g>
  <metadata>
    <rdf:RDF>
      <cc:Work>
        <dc:format>image/svg+xml</dc:format>
        <dc:type rdf:resource="http://purl.org/dc/dcmitype/StillImage"/>
        <cc:license rdf:resource="http://creativecommons.org/licenses/publicdomain/"/>
        <dc:publisher>
          <cc:Agent rdf:about="http://openclipart.org/">
            <dc:title>Openclipart</dc:title>
          </cc:Agent>
        </dc:publisher>
        <dc:title>red + green OK, not OK Icons</dc:title>
        <dc:date>2007-11-06T09:00:17</dc:date>
        <dc:description>Two circular icons in red and green, indicating success or failure. Can be used as visual confirmation.</dc:description>
        <dc:source>http://openclipart.org/detail/10940/red-+-green-ok-not-ok-icons-by-tzeeniewheenie-10940</dc:source>
        <dc:creator>
          <cc:Agent>
            <dc:title>TzeenieWheenie</dc:title>
          </cc:Agent>
        </dc:creator>
        <dc:subject>
          <rdf:Bag>
            <rdf:li>cancel</rdf:li>
            <rdf:li>clip art</rdf:li>
            <rdf:li>clipart</rdf:li>
            <rdf:li>cross</rdf:li>
            <rdf:li>icon</rdf:li>
            <rdf:li>image</rdf:li>
            <rdf:li>media</rdf:li>
            <rdf:li>okay</rdf:li>
            <rdf:li>png</rdf:li>
            <rdf:li>public domain</rdf:li>
            <rdf:li>svg</rdf:li>
            <rdf:li>tick</rdf:li>
          </rdf:Bag>
        </dc:subject>
      </cc:Work>
      <cc:License rdf:about="http://creativecommons.org/licenses/publicdomain/">
        <cc:permits rdf:resource="http://creativecommons.org/ns#Reproduction"/>
        <cc:permits rdf:resource="http://creativecommons.org/ns#Distribution"/>
        <cc:permits rdf:resource="http://creativecommons.org/ns#DerivativeWorks"/>
      </cc:License>
    </rdf:RDF>
  </metadata>
</svg>
